<mxfile host="65bd71144e">
    <diagram id="fh9JK9zEYruwa9kAD3Um" name="第1頁">
        <mxGraphModel dx="1136" dy="787" grid="1" gridSize="10" guides="1" tooltips="1" connect="1" arrows="1" fold="1" page="1" pageScale="1" pageWidth="827" pageHeight="1169" math="0" shadow="0">
            <root>
                <mxCell id="0"/>
                <mxCell id="1" parent="0"/>
                <mxCell id="3" value="&lt;font style=&quot;font-size: 13px;&quot; color=&quot;#000000&quot;&gt;&lt;br&gt;&lt;/font&gt;" style="shape=note2;boundedLbl=1;whiteSpace=wrap;html=1;size=25;verticalAlign=top;align=center;fillColor=#808080;strokeColor=#000000;strokeWidth=1;" parent="1" vertex="1">
                    <mxGeometry x="590" y="380" width="120" height="80" as="geometry"/>
                </mxCell>
                <mxCell id="7" value="&lt;font color=&quot;#0a0a0a&quot;&gt;:InstanceA&lt;/font&gt;" style="html=1;strokeWidth=2;fontSize=21;gradientDirection=east;fillColor=#dae8fc;gradientColor=#7ea6e0;strokeColor=#6c8ebf;" parent="1" vertex="1">
                    <mxGeometry x="110" y="110" width="110" height="50" as="geometry"/>
                </mxCell>
                <mxCell id="8" value="" style="line;strokeWidth=1;fillColor=#b1ddf0;align=left;verticalAlign=middle;spacingTop=-1;spacingLeft=3;spacingRight=3;rotatable=0;labelPosition=right;points=[];portConstraint=eastwest;strokeColor=#10739e;fontSize=21;" parent="1" vertex="1">
                    <mxGeometry x="120" y="140" width="90" height="8" as="geometry"/>
                </mxCell>
                <mxCell id="9" value="" style="html=1;points=[];perimeter=orthogonalPerimeter;strokeWidth=2;fontSize=21;gradientDirection=south;fillColor=#f5f5f5;gradientColor=#b3b3b3;strokeColor=#0A0A0A;" parent="1" vertex="1">
                    <mxGeometry x="160" y="210" width="10" height="250" as="geometry"/>
                </mxCell>
                <mxCell id="10" value="&lt;font color=&quot;#0a0a0a&quot;&gt;:InstanceB&lt;/font&gt;" style="html=1;strokeWidth=2;fontSize=21;gradientDirection=east;fillColor=#dae8fc;gradientColor=#7ea6e0;strokeColor=#6c8ebf;" parent="1" vertex="1">
                    <mxGeometry x="330" y="110" width="110" height="50" as="geometry"/>
                </mxCell>
                <mxCell id="11" value="" style="line;strokeWidth=1;fillColor=#b1ddf0;align=left;verticalAlign=middle;spacingTop=-1;spacingLeft=3;spacingRight=3;rotatable=0;labelPosition=right;points=[];portConstraint=eastwest;strokeColor=#10739e;fontSize=21;" parent="1" vertex="1">
                    <mxGeometry x="340" y="140" width="90" height="8" as="geometry"/>
                </mxCell>
                <mxCell id="12" value="&lt;font color=&quot;#0a0a0a&quot;&gt;:InstanceC&lt;/font&gt;" style="html=1;strokeWidth=2;fontSize=21;gradientDirection=east;fillColor=#dae8fc;gradientColor=#7ea6e0;strokeColor=#6c8ebf;" parent="1" vertex="1">
                    <mxGeometry x="550" y="110" width="110" height="50" as="geometry"/>
                </mxCell>
                <mxCell id="13" value="" style="line;strokeWidth=1;fillColor=#b1ddf0;align=left;verticalAlign=middle;spacingTop=-1;spacingLeft=3;spacingRight=3;rotatable=0;labelPosition=right;points=[];portConstraint=eastwest;strokeColor=#10739e;fontSize=21;" parent="1" vertex="1">
                    <mxGeometry x="560" y="140" width="90" height="8" as="geometry"/>
                </mxCell>
                <mxCell id="14" value="" style="endArrow=block;endFill=1;endSize=12;html=1;fontSize=21;fontColor=#0A0A0A;fillColor=#dae8fc;gradientColor=#7ea6e0;strokeColor=#6c8ebf;strokeWidth=3;" parent="1" edge="1">
                    <mxGeometry width="160" relative="1" as="geometry">
                        <mxPoint x="20" y="240" as="sourcePoint"/>
                        <mxPoint x="160" y="240" as="targetPoint"/>
                    </mxGeometry>
                </mxCell>
                <mxCell id="15" value="&lt;font style=&quot;font-size: 18px;&quot; color=&quot;#ffffff&quot;&gt;&lt;font style=&quot;font-size: 18px;&quot;&gt;operation1&lt;/font&gt;( )&lt;/font&gt;" style="text;html=1;strokeColor=none;fillColor=none;align=center;verticalAlign=middle;whiteSpace=wrap;rounded=0;strokeWidth=2;fontSize=21;fontColor=#0A0A0A;" parent="1" vertex="1">
                    <mxGeometry x="40" y="210" width="120" height="20" as="geometry"/>
                </mxCell>
                <mxCell id="18" value="" style="endArrow=none;dashed=1;html=1;strokeWidth=2;fontSize=18;fontColor=#FFFFFF;entryX=0.5;entryY=1;entryDx=0;entryDy=0;fillColor=#1ba1e2;strokeColor=#006EAF;" parent="1" source="9" target="7" edge="1">
                    <mxGeometry width="50" height="50" relative="1" as="geometry">
                        <mxPoint x="165" y="190" as="sourcePoint"/>
                        <mxPoint x="240" y="220" as="targetPoint"/>
                    </mxGeometry>
                </mxCell>
                <mxCell id="19" value="" style="endArrow=block;endFill=1;endSize=12;html=1;fontSize=21;fontColor=#0A0A0A;fillColor=#dae8fc;gradientColor=#7ea6e0;strokeColor=#6c8ebf;strokeWidth=3;" parent="1" target="21" edge="1">
                    <mxGeometry width="160" relative="1" as="geometry">
                        <mxPoint x="170" y="250" as="sourcePoint"/>
                        <mxPoint x="310" y="250" as="targetPoint"/>
                    </mxGeometry>
                </mxCell>
                <mxCell id="20" value="&lt;font style=&quot;font-size: 18px;&quot; color=&quot;#ffffff&quot;&gt;&lt;font style=&quot;font-size: 18px;&quot;&gt;operation2&lt;/font&gt;( )&lt;/font&gt;" style="text;html=1;strokeColor=none;fillColor=none;align=center;verticalAlign=middle;whiteSpace=wrap;rounded=0;strokeWidth=2;fontSize=21;fontColor=#0A0A0A;" parent="1" vertex="1">
                    <mxGeometry x="220" y="220" width="120" height="20" as="geometry"/>
                </mxCell>
                <mxCell id="21" value="" style="html=1;points=[];perimeter=orthogonalPerimeter;strokeWidth=2;fontSize=21;gradientDirection=south;fillColor=#f5f5f5;gradientColor=#b3b3b3;strokeColor=#0A0A0A;" parent="1" vertex="1">
                    <mxGeometry x="380" y="210" width="10" height="90" as="geometry"/>
                </mxCell>
                <mxCell id="22" value="" style="endArrow=none;dashed=1;html=1;strokeWidth=2;fontSize=18;fontColor=#FFFFFF;entryX=0.5;entryY=1;entryDx=0;entryDy=0;fillColor=#1ba1e2;strokeColor=#006EAF;" parent="1" edge="1">
                    <mxGeometry width="50" height="50" relative="1" as="geometry">
                        <mxPoint x="384.5" y="210" as="sourcePoint"/>
                        <mxPoint x="384.5" y="160" as="targetPoint"/>
                    </mxGeometry>
                </mxCell>
                <mxCell id="23" value="" style="endArrow=block;endFill=1;endSize=12;html=1;fontSize=21;fontColor=#0A0A0A;fillColor=#dae8fc;gradientColor=#7ea6e0;strokeColor=#6c8ebf;strokeWidth=2;entryX=0.92;entryY=0.312;entryDx=0;entryDy=0;entryPerimeter=0;exitX=0.2;exitY=0.867;exitDx=0;exitDy=0;exitPerimeter=0;dashed=1;" parent="1" edge="1">
                    <mxGeometry width="160" relative="1" as="geometry">
                        <mxPoint x="380" y="281.03" as="sourcePoint"/>
                        <mxPoint x="167.20000000000005" y="281" as="targetPoint"/>
                    </mxGeometry>
                </mxCell>
                <mxCell id="24" value="" style="endArrow=none;dashed=1;html=1;strokeWidth=2;fontSize=18;fontColor=#FFFFFF;entryX=0.5;entryY=1;entryDx=0;entryDy=0;fillColor=#1ba1e2;strokeColor=#006EAF;" parent="1" edge="1">
                    <mxGeometry width="50" height="50" relative="1" as="geometry">
                        <mxPoint x="384.5" y="350" as="sourcePoint"/>
                        <mxPoint x="384.5" y="300" as="targetPoint"/>
                    </mxGeometry>
                </mxCell>
                <mxCell id="25" value="" style="html=1;points=[];perimeter=orthogonalPerimeter;strokeWidth=2;fontSize=21;gradientDirection=south;fillColor=#f5f5f5;gradientColor=#b3b3b3;strokeColor=#0A0A0A;" parent="1" vertex="1">
                    <mxGeometry x="380" y="350" width="10" height="90" as="geometry"/>
                </mxCell>
                <mxCell id="26" value="" style="endArrow=block;endFill=1;endSize=12;html=1;fontSize=21;fontColor=#0A0A0A;fillColor=#dae8fc;gradientColor=#7ea6e0;strokeColor=#6c8ebf;strokeWidth=3;" parent="1" edge="1">
                    <mxGeometry width="160" relative="1" as="geometry">
                        <mxPoint x="170" y="370" as="sourcePoint"/>
                        <mxPoint x="380" y="370" as="targetPoint"/>
                    </mxGeometry>
                </mxCell>
                <mxCell id="27" value="&lt;font style=&quot;font-size: 18px;&quot; color=&quot;#ffffff&quot;&gt;&lt;font style=&quot;font-size: 18px;&quot;&gt;operation4&lt;/font&gt;( )&lt;/font&gt;" style="text;html=1;strokeColor=none;fillColor=none;align=center;verticalAlign=middle;whiteSpace=wrap;rounded=0;strokeWidth=2;fontSize=21;fontColor=#0A0A0A;" parent="1" vertex="1">
                    <mxGeometry x="220" y="340" width="120" height="20" as="geometry"/>
                </mxCell>
                <mxCell id="28" value="" style="endArrow=block;endFill=1;endSize=12;html=1;fontSize=21;fontColor=#0A0A0A;fillColor=#dae8fc;gradientColor=#7ea6e0;strokeColor=#6c8ebf;strokeWidth=2;entryX=0.92;entryY=0.312;entryDx=0;entryDy=0;entryPerimeter=0;exitX=0.2;exitY=0.867;exitDx=0;exitDy=0;exitPerimeter=0;dashed=1;" parent="1" edge="1">
                    <mxGeometry width="160" relative="1" as="geometry">
                        <mxPoint x="378.40000000000003" y="410.03" as="sourcePoint"/>
                        <mxPoint x="165.60000000000005" y="410" as="targetPoint"/>
                    </mxGeometry>
                </mxCell>
                <mxCell id="29" value="" style="endArrow=none;dashed=1;html=1;strokeWidth=2;fontSize=18;fontColor=#FFFFFF;entryX=0.5;entryY=1;entryDx=0;entryDy=0;fillColor=#1ba1e2;strokeColor=#006EAF;" parent="1" edge="1">
                    <mxGeometry width="50" height="50" relative="1" as="geometry">
                        <mxPoint x="385" y="470" as="sourcePoint"/>
                        <mxPoint x="384.5" y="440" as="targetPoint"/>
                    </mxGeometry>
                </mxCell>
                <mxCell id="30" value="" style="endArrow=none;dashed=1;html=1;strokeWidth=2;fontSize=18;fontColor=#FFFFFF;entryX=0.5;entryY=1;entryDx=0;entryDy=0;fillColor=#1ba1e2;strokeColor=#006EAF;" parent="1" edge="1">
                    <mxGeometry width="50" height="50" relative="1" as="geometry">
                        <mxPoint x="165" y="490" as="sourcePoint"/>
                        <mxPoint x="164.5" y="460" as="targetPoint"/>
                    </mxGeometry>
                </mxCell>
                <mxCell id="31" value="" style="endArrow=block;endFill=1;endSize=12;html=1;fontSize=21;fontColor=#0A0A0A;fillColor=#dae8fc;gradientColor=#7ea6e0;strokeColor=#6c8ebf;strokeWidth=3;exitX=-0.28;exitY=0.962;exitDx=0;exitDy=0;exitPerimeter=0;dashed=1;" parent="1" source="9" edge="1">
                    <mxGeometry width="160" relative="1" as="geometry">
                        <mxPoint x="242.8000000000001" y="460.03" as="sourcePoint"/>
                        <mxPoint x="30" y="450" as="targetPoint"/>
                    </mxGeometry>
                </mxCell>
                <mxCell id="32" value="" style="html=1;points=[];perimeter=orthogonalPerimeter;strokeWidth=2;fontSize=21;gradientDirection=south;fillColor=#f5f5f5;gradientColor=#b3b3b3;strokeColor=#0A0A0A;" parent="1" vertex="1">
                    <mxGeometry x="600" y="230" width="10" height="80" as="geometry"/>
                </mxCell>
                <mxCell id="33" value="" style="endArrow=none;dashed=1;html=1;strokeWidth=2;fontSize=18;fontColor=#FFFFFF;entryX=0.5;entryY=1;entryDx=0;entryDy=0;fillColor=#1ba1e2;strokeColor=#006EAF;" parent="1" edge="1">
                    <mxGeometry width="50" height="50" relative="1" as="geometry">
                        <mxPoint x="605" y="230" as="sourcePoint"/>
                        <mxPoint x="604.5" y="160" as="targetPoint"/>
                    </mxGeometry>
                </mxCell>
                <mxCell id="34" value="" style="endArrow=block;endFill=1;endSize=12;html=1;fontSize=21;fontColor=#0A0A0A;fillColor=#dae8fc;gradientColor=#7ea6e0;strokeColor=#6c8ebf;strokeWidth=3;" parent="1" edge="1">
                    <mxGeometry width="160" relative="1" as="geometry">
                        <mxPoint x="390" y="260" as="sourcePoint"/>
                        <mxPoint x="600" y="260" as="targetPoint"/>
                    </mxGeometry>
                </mxCell>
                <mxCell id="35" value="&lt;font style=&quot;font-size: 18px;&quot; color=&quot;#ffffff&quot;&gt;&lt;font style=&quot;font-size: 18px;&quot;&gt;operation3&lt;/font&gt;( )&lt;/font&gt;" style="text;html=1;strokeColor=none;fillColor=none;align=center;verticalAlign=middle;whiteSpace=wrap;rounded=0;strokeWidth=2;fontSize=21;fontColor=#0A0A0A;" parent="1" vertex="1">
                    <mxGeometry x="440" y="230" width="120" height="20" as="geometry"/>
                </mxCell>
                <mxCell id="36" value="" style="endArrow=block;endFill=1;endSize=12;html=1;fontSize=21;fontColor=#0A0A0A;fillColor=#dae8fc;gradientColor=#7ea6e0;strokeColor=#6c8ebf;strokeWidth=2;entryX=0.92;entryY=0.312;entryDx=0;entryDy=0;entryPerimeter=0;dashed=1;" parent="1" edge="1">
                    <mxGeometry width="160" relative="1" as="geometry">
                        <mxPoint x="600" y="290" as="sourcePoint"/>
                        <mxPoint x="390.00000000000006" y="290" as="targetPoint"/>
                    </mxGeometry>
                </mxCell>
                <mxCell id="37" value="" style="endArrow=none;dashed=1;html=1;strokeWidth=2;fontSize=18;fontColor=#FFFFFF;entryX=0.5;entryY=1;entryDx=0;entryDy=0;fillColor=#1ba1e2;strokeColor=#006EAF;" parent="1" edge="1">
                    <mxGeometry width="50" height="50" relative="1" as="geometry">
                        <mxPoint x="605" y="378" as="sourcePoint"/>
                        <mxPoint x="604.5" y="308" as="targetPoint"/>
                    </mxGeometry>
                </mxCell>
                <mxCell id="40" value="" style="endArrow=classicThin;endFill=1;endSize=12;html=1;fontSize=21;fontColor=#0A0A0A;fillColor=#dae8fc;gradientColor=#7ea6e0;strokeColor=#6c8ebf;strokeWidth=2;exitX=0;exitY=0;exitDx=47.5;exitDy=0;exitPerimeter=0;dashed=1;dashPattern=1 1;" parent="1" source="3" edge="1">
                    <mxGeometry width="160" relative="1" as="geometry">
                        <mxPoint x="388.4000000000001" y="420.03" as="sourcePoint"/>
                        <mxPoint x="638" y="160" as="targetPoint"/>
                    </mxGeometry>
                </mxCell>
                <mxCell id="41" value="" style="endArrow=classicThin;endFill=1;endSize=12;html=1;fontSize=21;fontColor=#0A0A0A;fillColor=#dae8fc;gradientColor=#7ea6e0;strokeColor=#6c8ebf;strokeWidth=2;dashed=1;dashPattern=1 1;" parent="1" edge="1">
                    <mxGeometry width="160" relative="1" as="geometry">
                        <mxPoint x="610" y="440" as="sourcePoint"/>
                        <mxPoint x="390" y="300" as="targetPoint"/>
                    </mxGeometry>
                </mxCell>
                <mxCell id="42" value="" style="endArrow=classicThin;endFill=1;endSize=12;html=1;fontSize=21;fontColor=#0A0A0A;fillColor=#dae8fc;gradientColor=#7ea6e0;strokeColor=#6c8ebf;strokeWidth=2;dashed=1;dashPattern=1 1;exitX=0.167;exitY=0.875;exitDx=0;exitDy=0;exitPerimeter=0;" parent="1" source="3" edge="1">
                    <mxGeometry width="160" relative="1" as="geometry">
                        <mxPoint x="587.5999999999999" y="452" as="sourcePoint"/>
                        <mxPoint x="320" y="374" as="targetPoint"/>
                    </mxGeometry>
                </mxCell>
                <mxCell id="43" value="&lt;font style=&quot;font-size: 13px;&quot; color=&quot;#000000&quot;&gt;&lt;br&gt;&lt;/font&gt;" style="shape=note2;boundedLbl=1;whiteSpace=wrap;html=1;size=25;verticalAlign=top;align=center;fillColor=#808080;strokeColor=#000000;strokeWidth=1;" parent="1" vertex="1">
                    <mxGeometry x="230" y="480" width="120" height="70" as="geometry"/>
                </mxCell>
                <mxCell id="45" value="" style="endArrow=classic;html=1;dashed=1;dashPattern=1 1;strokeWidth=2;fontSize=13;fontColor=#000000;entryX=0.04;entryY=0.956;entryDx=0;entryDy=0;entryPerimeter=0;fillColor=#cce5ff;strokeColor=#3399FF;" parent="1" target="25" edge="1">
                    <mxGeometry width="50" height="50" relative="1" as="geometry">
                        <mxPoint x="320" y="540" as="sourcePoint"/>
                        <mxPoint x="380" y="270" as="targetPoint"/>
                    </mxGeometry>
                </mxCell>
                <mxCell id="46" value="" style="endArrow=classic;html=1;dashed=1;dashPattern=1 1;strokeWidth=2;fontSize=13;fontColor=#000000;fillColor=#cce5ff;strokeColor=#3399FF;" parent="1" edge="1">
                    <mxGeometry width="50" height="50" relative="1" as="geometry">
                        <mxPoint x="260" y="520" as="sourcePoint"/>
                        <mxPoint x="140" y="460" as="targetPoint"/>
                    </mxGeometry>
                </mxCell>
                <mxCell id="47" value="&lt;span style=&quot;color: rgb(0, 0, 0);&quot;&gt;回覆訊息&lt;/span&gt;&lt;br style=&quot;color: rgb(0, 0, 0);&quot;&gt;&lt;span style=&quot;color: rgb(0, 0, 0);&quot;&gt;物件生命線&lt;/span&gt;" style="text;html=1;strokeColor=none;fillColor=none;align=center;verticalAlign=middle;whiteSpace=wrap;rounded=0;fontSize=13;" vertex="1" parent="1">
                    <mxGeometry x="260" y="500" width="60" height="30" as="geometry"/>
                </mxCell>
                <mxCell id="48" value="&lt;span style=&quot;color: rgb(0, 0, 0);&quot;&gt;程式中被建立的物件&lt;/span&gt;&lt;br style=&quot;color: rgb(0, 0, 0);&quot;&gt;&lt;span style=&quot;color: rgb(0, 0, 0);&quot;&gt;執行規格長條格&lt;/span&gt;&lt;br style=&quot;color: rgb(0, 0, 0);&quot;&gt;&lt;span style=&quot;color: rgb(0, 0, 0);&quot;&gt;訊息呼叫(操作)&lt;/span&gt;" style="text;html=1;strokeColor=none;fillColor=none;align=center;verticalAlign=middle;whiteSpace=wrap;rounded=0;fontSize=13;strokeWidth=0;" vertex="1" parent="1">
                    <mxGeometry x="587.5" y="415" width="125" height="25" as="geometry"/>
                </mxCell>
            </root>
        </mxGraphModel>
    </diagram>
</mxfile>